<mxfile host="app.diagrams.net" modified="2023-05-23T01:39:32.200Z" agent="Mozilla/5.0 (Windows NT 10.0; Win64; x64) AppleWebKit/537.36 (KHTML, like Gecko) Chrome/113.0.0.0 Safari/537.36 Edg/113.0.1774.50" etag="lDvgU0wNDfrDm-6bwOQ-" version="21.3.2" type="github">
  <diagram name="第 1 页" id="D-zRkGdbteURsdq92sx2">
    <mxGraphModel dx="1050" dy="596" grid="1" gridSize="10" guides="1" tooltips="1" connect="1" arrows="1" fold="1" page="1" pageScale="1" pageWidth="827" pageHeight="1169" math="0" shadow="0">
      <root>
        <mxCell id="0" />
        <mxCell id="1" parent="0" />
        <mxCell id="9qWCOXx9Cz_qFIpfJlt7-4" style="edgeStyle=orthogonalEdgeStyle;rounded=0;orthogonalLoop=1;jettySize=auto;html=1;exitX=1;exitY=0.5;exitDx=0;exitDy=0;entryX=0;entryY=0.5;entryDx=0;entryDy=0;exitPerimeter=0;fontSize=15;" parent="1" source="9qWCOXx9Cz_qFIpfJlt7-7" target="9qWCOXx9Cz_qFIpfJlt7-3" edge="1">
          <mxGeometry relative="1" as="geometry">
            <mxPoint x="170" y="100" as="sourcePoint" />
          </mxGeometry>
        </mxCell>
        <mxCell id="9qWCOXx9Cz_qFIpfJlt7-8" value="指标数据" style="edgeLabel;html=1;align=center;verticalAlign=middle;resizable=0;points=[];fontSize=15;" parent="9qWCOXx9Cz_qFIpfJlt7-4" vertex="1" connectable="0">
          <mxGeometry x="-0.2367" relative="1" as="geometry">
            <mxPoint x="14" as="offset" />
          </mxGeometry>
        </mxCell>
        <mxCell id="9qWCOXx9Cz_qFIpfJlt7-6" style="edgeStyle=orthogonalEdgeStyle;rounded=0;orthogonalLoop=1;jettySize=auto;html=1;exitX=1;exitY=0.5;exitDx=0;exitDy=0;entryX=0;entryY=0.5;entryDx=0;entryDy=0;fontSize=15;entryPerimeter=0;" parent="1" source="9qWCOXx9Cz_qFIpfJlt7-3" target="9qWCOXx9Cz_qFIpfJlt7-18" edge="1">
          <mxGeometry relative="1" as="geometry">
            <mxPoint x="480" y="100" as="targetPoint" />
          </mxGeometry>
        </mxCell>
        <mxCell id="9qWCOXx9Cz_qFIpfJlt7-9" value="计算结果" style="edgeLabel;html=1;align=center;verticalAlign=middle;resizable=0;points=[];fontSize=15;" parent="9qWCOXx9Cz_qFIpfJlt7-6" vertex="1" connectable="0">
          <mxGeometry x="-0.22" y="3" relative="1" as="geometry">
            <mxPoint x="13" y="3" as="offset" />
          </mxGeometry>
        </mxCell>
        <mxCell id="9qWCOXx9Cz_qFIpfJlt7-3" value="算法程序" style="shape=process;whiteSpace=wrap;html=1;backgroundOutline=1;fontSize=15;" parent="1" vertex="1">
          <mxGeometry x="240" y="70" width="120" height="60" as="geometry" />
        </mxCell>
        <mxCell id="9qWCOXx9Cz_qFIpfJlt7-7" value="指标库" style="shape=cylinder3;whiteSpace=wrap;html=1;boundedLbl=1;backgroundOutline=1;size=15;fontSize=15;" parent="1" vertex="1">
          <mxGeometry x="60" y="60" width="60" height="80" as="geometry" />
        </mxCell>
        <mxCell id="9qWCOXx9Cz_qFIpfJlt7-18" value="指数结果表" style="shape=note;whiteSpace=wrap;html=1;backgroundOutline=1;darkOpacity=0.05;" parent="1" vertex="1">
          <mxGeometry x="490" y="50" width="80" height="100" as="geometry" />
        </mxCell>
        <mxCell id="9qWCOXx9Cz_qFIpfJlt7-20" value="词频统计结果" style="swimlane;fontStyle=0;childLayout=stackLayout;horizontal=1;startSize=30;horizontalStack=0;resizeParent=1;resizeParentMax=0;resizeLast=0;collapsible=1;marginBottom=0;whiteSpace=wrap;html=1;" parent="1" vertex="1">
          <mxGeometry x="60" y="400" width="140" height="210" as="geometry" />
        </mxCell>
        <mxCell id="9qWCOXx9Cz_qFIpfJlt7-21" value="报告名称/文件名称" style="text;strokeColor=none;fillColor=none;align=left;verticalAlign=middle;spacingLeft=4;spacingRight=4;overflow=hidden;points=[[0,0.5],[1,0.5]];portConstraint=eastwest;rotatable=0;whiteSpace=wrap;html=1;" parent="9qWCOXx9Cz_qFIpfJlt7-20" vertex="1">
          <mxGeometry y="30" width="140" height="30" as="geometry" />
        </mxCell>
        <mxCell id="9qWCOXx9Cz_qFIpfJlt7-22" value="报告年份" style="text;strokeColor=none;fillColor=none;align=left;verticalAlign=middle;spacingLeft=4;spacingRight=4;overflow=hidden;points=[[0,0.5],[1,0.5]];portConstraint=eastwest;rotatable=0;whiteSpace=wrap;html=1;" parent="9qWCOXx9Cz_qFIpfJlt7-20" vertex="1">
          <mxGeometry y="60" width="140" height="30" as="geometry" />
        </mxCell>
        <mxCell id="9qWCOXx9Cz_qFIpfJlt7-23" value="关键字" style="text;strokeColor=none;fillColor=none;align=left;verticalAlign=middle;spacingLeft=4;spacingRight=4;overflow=hidden;points=[[0,0.5],[1,0.5]];portConstraint=eastwest;rotatable=0;whiteSpace=wrap;html=1;" parent="9qWCOXx9Cz_qFIpfJlt7-20" vertex="1">
          <mxGeometry y="90" width="140" height="30" as="geometry" />
        </mxCell>
        <mxCell id="9qWCOXx9Cz_qFIpfJlt7-24" value="关键字所在的句子" style="text;strokeColor=none;fillColor=none;align=left;verticalAlign=middle;spacingLeft=4;spacingRight=4;overflow=hidden;points=[[0,0.5],[1,0.5]];portConstraint=eastwest;rotatable=0;whiteSpace=wrap;html=1;" parent="9qWCOXx9Cz_qFIpfJlt7-20" vertex="1">
          <mxGeometry y="120" width="140" height="30" as="geometry" />
        </mxCell>
        <mxCell id="9qWCOXx9Cz_qFIpfJlt7-25" value="句子的总字数" style="text;strokeColor=none;fillColor=none;align=left;verticalAlign=middle;spacingLeft=4;spacingRight=4;overflow=hidden;points=[[0,0.5],[1,0.5]];portConstraint=eastwest;rotatable=0;whiteSpace=wrap;html=1;" parent="9qWCOXx9Cz_qFIpfJlt7-20" vertex="1">
          <mxGeometry y="150" width="140" height="30" as="geometry" />
        </mxCell>
        <mxCell id="9qWCOXx9Cz_qFIpfJlt7-26" value="文章的总字数" style="text;strokeColor=none;fillColor=none;align=left;verticalAlign=middle;spacingLeft=4;spacingRight=4;overflow=hidden;points=[[0,0.5],[1,0.5]];portConstraint=eastwest;rotatable=0;whiteSpace=wrap;html=1;" parent="9qWCOXx9Cz_qFIpfJlt7-20" vertex="1">
          <mxGeometry y="180" width="140" height="30" as="geometry" />
        </mxCell>
        <mxCell id="eDDSpT1vU8iJtbELgRpI-1" value="城市数字金融指数" style="swimlane;fontStyle=0;childLayout=stackLayout;horizontal=1;startSize=30;horizontalStack=0;resizeParent=1;resizeParentMax=0;resizeLast=0;collapsible=1;marginBottom=0;whiteSpace=wrap;html=1;" vertex="1" parent="1">
          <mxGeometry x="280" y="200" width="140" height="120" as="geometry" />
        </mxCell>
        <mxCell id="eDDSpT1vU8iJtbELgRpI-2" value="熵权法" style="text;strokeColor=none;fillColor=none;align=left;verticalAlign=middle;spacingLeft=4;spacingRight=4;overflow=hidden;points=[[0,0.5],[1,0.5]];portConstraint=eastwest;rotatable=0;whiteSpace=wrap;html=1;" vertex="1" parent="eDDSpT1vU8iJtbELgRpI-1">
          <mxGeometry y="30" width="140" height="30" as="geometry" />
        </mxCell>
        <mxCell id="eDDSpT1vU8iJtbELgRpI-3" value="自定义权重综合评价法" style="text;strokeColor=none;fillColor=none;align=left;verticalAlign=middle;spacingLeft=4;spacingRight=4;overflow=hidden;points=[[0,0.5],[1,0.5]];portConstraint=eastwest;rotatable=0;whiteSpace=wrap;html=1;" vertex="1" parent="eDDSpT1vU8iJtbELgRpI-1">
          <mxGeometry y="60" width="140" height="30" as="geometry" />
        </mxCell>
        <mxCell id="eDDSpT1vU8iJtbELgRpI-4" value="灰靶熵权法" style="text;strokeColor=none;fillColor=none;align=left;verticalAlign=middle;spacingLeft=4;spacingRight=4;overflow=hidden;points=[[0,0.5],[1,0.5]];portConstraint=eastwest;rotatable=0;whiteSpace=wrap;html=1;" vertex="1" parent="eDDSpT1vU8iJtbELgRpI-1">
          <mxGeometry y="90" width="140" height="30" as="geometry" />
        </mxCell>
      </root>
    </mxGraphModel>
  </diagram>
</mxfile>
